<svg width="225" height="389" viewBox="0 0 225 389" fill="none"
  xmlns="http://www.w3.org/2000/svg">
  <path d="M39.0512 9.85755C30.648 15.352 23.2952 20.4424 22.8104 21.2504C22.3256 22.0584 21.2752 29.9768 20.548 38.8648C19.8208 47.7528 18.528 63.024 17.6392 72.8008C16.7504 82.5776 15.296 99.0607 14.4072 109.322C13.5184 119.665 12.064 136.39 11.1752 146.49C9.47844 166.206 7.37764 189.476 4.71124 220.665C3.74164 231.33 2.28724 247.975 1.39844 257.671C0.509638 267.448 -0.136762 275.447 0.0248376 275.609C0.186438 275.69 18.8512 265.105 41.4752 252.015C114.68 209.676 124.295 204.182 128.982 202.404C132.375 201.111 135.85 200.465 142.314 200.222C149.99 199.899 151.767 200.142 157.666 202C177.785 208.222 190.551 225.432 190.551 246.198C190.551 256.863 187.238 266.559 180.694 274.801C174.391 282.719 178.512 280.134 97.6312 326.674C75.6536 339.36 57.3928 349.945 57.0696 350.268C56.7464 350.51 55.9384 357.702 55.292 366.105C54.5648 374.589 53.8376 383.073 53.5144 385.012L53.0296 388.567L54.9688 387.355C55.9384 386.709 74.8456 375.801 96.8232 363.115C181.502 314.312 191.682 308.252 197.177 303.808C221.336 284.254 231.194 249.349 221.013 219.372C211.882 192.789 191.036 174.528 162.998 168.468C152.737 166.286 138.193 166.61 127.931 169.276C119.043 171.619 111.367 175.578 71.6136 198.687C52.7064 209.676 36.708 218.645 36.2232 218.645C35.5768 218.645 35.4152 217.594 35.7384 215.574C35.9808 213.958 36.3848 209.999 36.6272 206.929C37.0312 201.111 39.0512 177.437 41.8792 145.925C42.768 135.906 44.2224 119.342 45.1112 109.161C46 98.8991 47.4544 82.1736 48.3432 71.9928C50.6056 46.1368 53.1104 17.776 53.9184 8.16075C54.3224 3.71675 54.5648 0.0807538 54.484 -4.61936e-05C54.484 -4.61936e-05 47.5352 4.44395 39.0512 9.85755Z" fill="#D91F4C"/>
</svg>
  